solid OpenSCAD_Model
  facet normal 1 0 0
    outer loop
      vertex 0.15 0.299999 0.0504999
      vertex 0.15 0.0999994 0.0494995
      vertex 0.15 0.299999 0.0494995
    endloop
  endfacet
  facet normal 1 0 0
    outer loop
      vertex 0.15 0.0999994 0.0494995
      vertex 0.15 -0.0999994 0.0494995
      vertex 0.15 0.0999994 -0.0499992
    endloop
  endfacet
  facet normal 1 0 0
    outer loop
      vertex 0.15 0.299999 0.0504999
      vertex 0.15 -0.0999994 0.0494995
      vertex 0.15 0.0999994 0.0494995
    endloop
  endfacet
  facet normal 1 -0 0
    outer loop
      vertex 0.15 -0.299999 0.0504999
      vertex 0.15 -0.0999994 0.0494995
      vertex 0.15 0.299999 0.0504999
    endloop
  endfacet
  facet normal 1 0 0
    outer loop
      vertex 0.15 -0.0999994 0.0494995
      vertex 0.15 -0.299999 0.0504999
      vertex 0.15 -0.299999 0.0494995
    endloop
  endfacet
  facet normal 1 0 0
    outer loop
      vertex 0.15 0.0999994 -0.0499992
      vertex 0.15 -0.0999994 0.0494995
      vertex 0.15 -0.0999994 -0.0499992
    endloop
  endfacet
  facet normal 0 0 -1
    outer loop
      vertex -0.15 -0.0999994 -0.0499992
      vertex 0.15 0.0999994 -0.0499992
      vertex 0.15 -0.0999994 -0.0499992
    endloop
  endfacet
  facet normal -0 0 -1
    outer loop
      vertex 0.15 0.0999994 -0.0499992
      vertex -0.15 -0.0999994 -0.0499992
      vertex -0.15 0.0999994 -0.0499992
    endloop
  endfacet
  facet normal -1 0 0
    outer loop
      vertex -0.15 0.0999994 -0.0499992
      vertex -0.15 -0.0999994 -0.0499992
      vertex -0.15 0.0999994 0.0494995
    endloop
  endfacet
  facet normal -1 0 0
    outer loop
      vertex -0.15 0.0999994 0.0494995
      vertex -0.15 0.299999 0.0504999
      vertex -0.15 0.299999 0.0494995
    endloop
  endfacet
  facet normal -1 0 0
    outer loop
      vertex -0.15 -0.0999994 0.0494995
      vertex -0.15 0.0999994 0.0494995
      vertex -0.15 -0.0999994 -0.0499992
    endloop
  endfacet
  facet normal -1 0 0
    outer loop
      vertex -0.15 -0.0999994 0.0494995
      vertex -0.15 0.299999 0.0504999
      vertex -0.15 0.0999994 0.0494995
    endloop
  endfacet
  facet normal -1 0 0
    outer loop
      vertex -0.15 -0.299999 0.0504999
      vertex -0.15 -0.0999994 0.0494995
      vertex -0.15 -0.299999 0.0494995
    endloop
  endfacet
  facet normal -1 0 0
    outer loop
      vertex -0.15 -0.0999994 0.0494995
      vertex -0.15 -0.299999 0.0504999
      vertex -0.15 0.299999 0.0504999
    endloop
  endfacet
  facet normal 0 1 -0
    outer loop
      vertex 0.15 0.0999994 -0.0499992
      vertex -0.15 0.0999994 0.0494995
      vertex 0.15 0.0999994 0.0494995
    endloop
  endfacet
  facet normal 0 1 0
    outer loop
      vertex -0.15 0.0999994 0.0494995
      vertex 0.15 0.0999994 -0.0499992
      vertex -0.15 0.0999994 -0.0499992
    endloop
  endfacet
  facet normal 0 -1 0
    outer loop
      vertex -0.15 -0.0999994 -0.0499992
      vertex 0.15 -0.0999994 0.0494995
      vertex -0.15 -0.0999994 0.0494995
    endloop
  endfacet
  facet normal 0 -1 -0
    outer loop
      vertex 0.15 -0.0999994 0.0494995
      vertex -0.15 -0.0999994 -0.0499992
      vertex 0.15 -0.0999994 -0.0499992
    endloop
  endfacet
  facet normal -0 0 1
    outer loop
      vertex -0.15 0.299999 0.0504999
      vertex 0.15 -0.299999 0.0504999
      vertex 0.15 0.299999 0.0504999
    endloop
  endfacet
  facet normal 0 0 1
    outer loop
      vertex 0.15 -0.299999 0.0504999
      vertex -0.15 0.299999 0.0504999
      vertex -0.15 -0.299999 0.0504999
    endloop
  endfacet
  facet normal 0 0 -1
    outer loop
      vertex -0.15 0.0999994 0.0494995
      vertex 0.15 0.299999 0.0494995
      vertex 0.15 0.0999994 0.0494995
    endloop
  endfacet
  facet normal -0 0 -1
    outer loop
      vertex 0.15 0.299999 0.0494995
      vertex -0.15 0.0999994 0.0494995
      vertex -0.15 0.299999 0.0494995
    endloop
  endfacet
  facet normal 0 0 -1
    outer loop
      vertex -0.15 -0.299999 0.0494995
      vertex 0.15 -0.0999994 0.0494995
      vertex 0.15 -0.299999 0.0494995
    endloop
  endfacet
  facet normal -0 0 -1
    outer loop
      vertex 0.15 -0.0999994 0.0494995
      vertex -0.15 -0.299999 0.0494995
      vertex -0.15 -0.0999994 0.0494995
    endloop
  endfacet
  facet normal 0 1 -0
    outer loop
      vertex 0.15 0.299999 0.0494995
      vertex -0.15 0.299999 0.0504999
      vertex 0.15 0.299999 0.0504999
    endloop
  endfacet
  facet normal 0 1 0
    outer loop
      vertex -0.15 0.299999 0.0504999
      vertex 0.15 0.299999 0.0494995
      vertex -0.15 0.299999 0.0494995
    endloop
  endfacet
  facet normal 0 -1 0
    outer loop
      vertex -0.15 -0.299999 0.0494995
      vertex 0.15 -0.299999 0.0504999
      vertex -0.15 -0.299999 0.0504999
    endloop
  endfacet
  facet normal 0 -1 -0
    outer loop
      vertex 0.15 -0.299999 0.0504999
      vertex -0.15 -0.299999 0.0494995
      vertex 0.15 -0.299999 0.0494995
    endloop
  endfacet
endsolid OpenSCAD_Model
